# xmcd
# 
# Track frame offsets:
#     150
#     21283
#     42355
#     63565
# 
# Disc length: 1125
# 
# Revision: 2
# Processed by: cddbd v1.5.2PL0 Copyright (c) Steve Scherf et al.
# Submitted via: fre:ac v1.0.27
# 
DISCID=31046304
DTITLE=長山洋子 - じょんから女節
DYEAR=2003
DGENRE=演歌
TTITLE0=じょんから女節
TTITLE1=たまゆら
TTITLE2=じょんから女節 (オリジナル・カラオケ)
TTITLE3=たまゆら (オリジナル・カラオケ)
EXTD=
EXTT0=
EXTT1=
EXTT2=
EXTT3=
PLAYORDER=
